<svg width="15" height="16" viewBox="0 0 15 16" fill="none" xmlns="http://www.w3.org/2000/svg">
<rect x="7" y="8" width="1" height="1" fill="#757575"/>
<rect x="8" y="5" width="1" height="1" fill="#757575"/>
<rect x="9" y="4" width="1" height="1" fill="#757575"/>
<rect x="7" y="6" width="1" height="1" fill="#757575"/>
<rect x="6" y="1" width="1" height="3" fill="#757575"/>
<rect x="6" y="13" width="1" height="3" fill="black"/>
<rect x="8" y="13" width="1" height="3" fill="black"/>
<rect x="8" y="1" width="1" height="3" fill="#757575"/>
<rect x="7" y="1" width="1" height="3" fill="white"/>
<rect x="5" y="8" width="1" height="1" fill="#757575"/>
<rect x="3" y="6" width="1" height="1" fill="#757575"/>
<rect x="13" y="8" width="2" height="1" fill="#757575"/>
<rect x="2" y="5" width="1" height="1" fill="#757575"/>
<rect x="1" y="4" width="1" height="1" fill="#757575"/>
<rect x="2" y="3" width="2" height="1" fill="#757575"/>
<rect x="4" y="4" width="2" height="1" fill="#757575"/>
<rect y="8" width="1" height="1" fill="#757575"/>
<rect x="3" y="10" width="1" height="1" fill="#757575"/>
<rect x="3" y="12" width="1" height="1" fill="#757575"/>
<rect x="2" y="13" width="1" height="1" fill="#757575"/>
<rect x="11" y="3" width="1" height="1" fill="#757575"/>
<rect x="12" y="2" width="1" height="1" fill="#757575"/>
<rect x="12" y="13" width="1" height="1" fill="#757575"/>
<rect x="11" y="12" width="1" height="1" fill="#757575"/>
<rect x="11" y="13" width="1" height="1" fill="black"/>
<rect x="12" y="14" width="1" height="1" fill="black"/>
<rect x="7" y="15" width="1" height="1" fill="black"/>
<rect x="7" width="1" height="1" fill="#757575"/>
<rect x="10" y="4" width="1" height="1" fill="#757575"/>
<rect x="9" y="6" width="1" height="2" fill="#757575"/>
<rect x="10" y="5" width="1" height="2" fill="#757575"/>
<rect x="7" y="13" width="1" height="2" fill="#757575"/>
<rect x="13" y="3" width="1" height="2" fill="black"/>
<rect x="12" y="4" width="1" height="2" fill="black"/>
<rect x="11" y="5" width="1" height="2" fill="black"/>
<rect x="4" y="12" width="1" height="2" transform="rotate(-90 4 12)" fill="#757575"/>
<rect y="10" width="1" height="5" transform="rotate(-90 0 10)" fill="#757575"/>
<rect y="8" width="1" height="3" transform="rotate(-90 0 8)" fill="#757575"/>
<rect x="5" y="11" width="1" height="2" transform="rotate(-90 5 11)" fill="#757575"/>
<rect x="7" y="7" width="1" height="1" fill="#B8B8B8"/>
<rect x="8" y="6" width="1" height="1" fill="#B8B8B8"/>
<rect x="9" y="5" width="1" height="1" fill="#B8B8B8"/>
<rect x="11" y="4" width="1" height="1" fill="#B8B8B8"/>
<rect x="12" y="3" width="1" height="1" fill="#B8B8B8"/>
<rect x="1" y="13" width="1" height="1" fill="#B8B8B8"/>
<rect x="2" y="12" width="1" height="1" fill="#B8B8B8"/>
<rect x="3" y="11" width="1" height="1" fill="#B8B8B8"/>
<rect x="4" y="10" width="1" height="1" fill="#B8B8B8"/>
<rect x="3" y="5" width="1" height="1" fill="#B8B8B8"/>
<rect x="2" y="4" width="1" height="1" fill="#B8B8B8"/>
<rect x="5" y="9" width="1" height="1" fill="#B8B8B8"/>
<rect x="3" y="8" width="2" height="1" fill="#B8B8B8"/>
<rect x="7" y="4" width="2" height="1" fill="#B8B8B8"/>
<rect x="6" y="5" width="2" height="1" fill="#B8B8B8"/>
<rect x="5" y="6" width="2" height="1" fill="#B8B8B8"/>
<rect x="4" y="7" width="2" height="1" fill="#B8B8B8"/>
<rect x="6" y="8" width="1" height="1" fill="#B8B8B8"/>
<rect x="6" y="7" width="1" height="1" fill="white"/>
<rect x="3" y="7" width="1" height="1" fill="white"/>
<rect x="3" y="4" width="1" height="1" fill="white"/>
<rect x="6" y="4" width="1" height="1" fill="white"/>
<rect x="4" y="6" width="1" height="1" fill="white"/>
<rect x="1" y="8" width="2" height="1" fill="white"/>
<rect x="4" y="5" width="2" height="1" fill="white"/>
<rect x="10" y="7" width="5" height="1" fill="black"/>
<rect x="8" y="8" width="5" height="1" fill="black"/>
<rect x="7" y="10" width="5" height="1" fill="black"/>
<rect x="6" y="9" width="9" height="1" fill="black"/>
<rect x="6" y="11" width="7" height="1" fill="black"/>
<rect x="4" y="12" width="7" height="1" fill="black"/>
<rect x="8" y="7" width="1" height="1" fill="black"/>
<rect x="13" y="13" width="1" height="1" fill="black"/>
<rect x="12" y="12" width="2" height="1" fill="black"/>
<rect x="3" y="13" width="2" height="1" fill="black"/>
<rect x="2" y="14" width="2" height="1" fill="black"/>
</svg>
