<svg width="15" height="15" viewBox="0 0 15 15" fill="none" xmlns="http://www.w3.org/2000/svg">
<rect x="4" y="4" width="7" height="7" fill="black"/>
<line x1="5" y1="3.5" x2="10" y2="3.5" stroke="black"/>
<line x1="3.5" y1="5" x2="3.5" y2="10" stroke="black"/>
<line x1="11.5" y1="5" x2="11.5" y2="10" stroke="black"/>
<line x1="5" y1="11.5" x2="10" y2="11.5" stroke="black"/>
<line x1="1" y1="7.5" x2="3" y2="7.5" stroke="black"/>
<line x1="12" y1="7.5" x2="14" y2="7.5" stroke="black"/>
<line x1="7.5" y1="14" x2="7.5" y2="12" stroke="black"/>
<line x1="7.5" y1="3" x2="7.5" y2="1" stroke="black"/>
<line x1="3.5" y1="3" x2="3.5" y2="4" stroke="black"/>
<line x1="11.5" y1="3" x2="11.5" y2="4" stroke="black"/>
<line x1="3.5" y1="11" x2="3.5" y2="12" stroke="black"/>
<line x1="11.5" y1="11" x2="11.5" y2="12" stroke="black"/>
<rect x="5" y="5" width="2" height="2" fill="white"/>
<rect x="3" y="4" width="2" height="1" fill="#EB3323"/>
<rect x="2" y="3" width="2" height="1" fill="#EB3323"/>
<rect x="1" y="2" width="2" height="1" fill="#EB3323"/>
<rect x="6" y="7" width="2" height="1" fill="#EB3323"/>
<rect x="5" y="6" width="2" height="1" fill="#EB3323"/>
<rect x="4" y="5" width="2" height="1" fill="#EB3323"/>
<rect x="9" y="10" width="2" height="1" fill="#EB3323"/>
<rect x="8" y="9" width="2" height="1" fill="#EB3323"/>
<rect x="7" y="8" width="2" height="1" fill="#EB3323"/>
<rect x="12" y="13" width="2" height="1" fill="#EB3323"/>
<rect x="1" y="13" width="2" height="1" fill="#EB3323"/>
<rect x="2" y="12" width="2" height="1" fill="#EB3323"/>
<rect x="3" y="11" width="2" height="1" fill="#EB3323"/>
<rect x="4" y="10" width="2" height="1" fill="#EB3323"/>
<rect x="5" y="9" width="2" height="1" fill="#EB3323"/>
<rect x="6" y="8" width="2" height="1" fill="#EB3323"/>
<rect x="7" y="7" width="2" height="1" fill="#EB3323"/>
<rect x="8" y="6" width="2" height="1" fill="#EB3323"/>
<rect x="9" y="5" width="2" height="1" fill="#EB3323"/>
<rect x="10" y="4" width="2" height="1" fill="#EB3323"/>
<rect x="11" y="3" width="2" height="1" fill="#EB3323"/>
<rect x="12" y="2" width="2" height="1" fill="#EB3323"/>
<rect x="11" y="12" width="2" height="1" fill="#EB3323"/>
<rect x="10" y="11" width="2" height="1" fill="#EB3323"/>
</svg>
