<svg width="13" height="23" viewBox="0 0 13 23" fill="none" xmlns="http://www.w3.org/2000/svg">
<rect x="1" y="2" width="1" height="1" fill="#6B120A"/>
<rect x="1" y="4" width="1" height="1" fill="#6B120A"/>
<rect x="1" y="6" width="1" height="1" fill="#6B120A"/>
<rect x="1" y="8" width="1" height="1" fill="#6B120A"/>
<rect x="3" y="4" width="1" height="1" fill="#6B120A"/>
<rect x="3" y="6" width="1" height="1" fill="#6B120A"/>
<rect x="3" y="8" width="1" height="1" fill="#6B120A"/>
<rect x="2" y="9" width="1" height="1" fill="#6B120A"/>
<rect x="2" y="3" width="1" height="1" fill="#6B120A"/>
<rect x="2" y="5" width="1" height="1" fill="#6B120A"/>
<rect x="2" y="7" width="1" height="1" fill="#6B120A"/>
<rect x="2" y="4" width="1" height="1" fill="#050000"/>
<rect x="2" y="6" width="1" height="1" fill="#050000"/>
<rect x="3" y="5" width="1" height="1" fill="#050000"/>
<rect x="3" y="7" width="1" height="1" fill="#050000"/>
<rect x="2" y="8" width="1" height="1" fill="#050000"/>
<rect x="1" y="9" width="1" height="1" fill="#050000"/>
<rect x="1" y="3" width="1" height="1" fill="#050000"/>
<rect x="1" y="5" width="1" height="1" fill="#050000"/>
<rect x="1" y="7" width="1" height="1" fill="#050000"/>
<rect x="1" y="10" width="1" height="1" fill="#6B120A"/>
<rect x="1" y="12" width="1" height="1" fill="#6B120A"/>
<rect x="1" y="14" width="1" height="1" fill="#6B120A"/>
<rect x="1" y="16" width="1" height="1" fill="#6B120A"/>
<rect x="1" y="18" width="1" height="1" fill="#6B120A"/>
<rect x="3" y="14" width="1" height="1" fill="#6B120A"/>
<rect x="3" y="16" width="1" height="1" fill="#6B120A"/>
<rect x="3" y="18" width="1" height="1" fill="#6B120A"/>
<rect x="2" y="19" width="1" height="1" fill="#6B120A"/>
<rect x="2" y="13" width="1" height="1" fill="#6B120A"/>
<rect x="2" y="15" width="1" height="1" fill="#6B120A"/>
<rect x="2" y="17" width="1" height="1" fill="#6B120A"/>
<rect x="2" y="14" width="1" height="1" fill="#050000"/>
<rect x="2" y="16" width="1" height="1" fill="#050000"/>
<rect x="3" y="15" width="1" height="1" fill="#050000"/>
<rect x="3" y="17" width="1" height="1" fill="#050000"/>
<rect x="2" y="18" width="1" height="1" fill="#050000"/>
<rect x="1" y="19" width="1" height="1" fill="#050000"/>
<rect x="1" y="13" width="1" height="1" fill="#050000"/>
<rect x="1" y="15" width="1" height="1" fill="#050000"/>
<rect x="1" y="17" width="1" height="1" fill="#050000"/>
<rect x="1" y="20" width="1" height="1" fill="#6B120A"/>
<rect x="11" y="11" width="1" height="9" transform="rotate(90 11 11)" fill="#EB3323"/>
<rect x="10" y="12" width="1" height="7" transform="rotate(90 10 12)" fill="#EB3323"/>
<rect x="10" y="10" width="1" height="7" transform="rotate(90 10 10)" fill="#EB3323"/>
<rect x="12" y="11" width="1" height="9" transform="rotate(-180 12 11)" fill="#EB3323"/>
<rect x="10" y="9" width="1" height="5" transform="rotate(-180 10 9)" fill="#EB3323"/>
<rect x="11" y="10" width="1" height="7" transform="rotate(-180 11 10)" fill="#EB3323"/>
<rect x="2" y="22" width="1" height="9" transform="rotate(-90 2 22)" fill="#EB3323"/>
<rect x="4" y="20" width="1" height="5" transform="rotate(-90 4 20)" fill="#EB3323"/>
<rect x="3" y="21" width="1" height="7" transform="rotate(-90 3 21)" fill="#EB3323"/>
<rect x="11" y="1" width="1" height="9" transform="rotate(90 11 1)" fill="#EB3323"/>
<rect x="9" y="3" width="1" height="5" transform="rotate(90 9 3)" fill="#EB3323"/>
<rect x="10" y="2" width="1" height="7" transform="rotate(90 10 2)" fill="#EB3323"/>
<rect x="12" y="21" width="1" height="9" transform="rotate(-180 12 21)" fill="#EB3323"/>
<rect x="10" y="19" width="1" height="5" transform="rotate(-180 10 19)" fill="#EB3323"/>
<rect x="11" y="20" width="1" height="7" transform="rotate(-180 11 20)" fill="#EB3323"/>
</svg>
