<svg width="13" height="23" viewBox="0 0 13 23" fill="none" xmlns="http://www.w3.org/2000/svg">
<rect x="1" y="2" width="1" height="1" fill="#6B120A"/>
<rect x="1" y="4" width="1" height="1" fill="#6B120A"/>
<rect x="1" y="6" width="1" height="1" fill="#6B120A"/>
<rect x="1" y="8" width="1" height="1" fill="#6B120A"/>
<rect x="3" y="4" width="1" height="1" fill="#6B120A"/>
<rect x="3" y="6" width="1" height="1" fill="#6B120A"/>
<rect x="3" y="8" width="1" height="1" fill="#6B120A"/>
<rect x="2" y="9" width="1" height="1" fill="#6B120A"/>
<rect x="2" y="3" width="1" height="1" fill="#6B120A"/>
<rect x="2" y="5" width="1" height="1" fill="#6B120A"/>
<rect x="2" y="7" width="1" height="1" fill="#6B120A"/>
<rect x="2" y="4" width="1" height="1" fill="#050000"/>
<rect x="2" y="6" width="1" height="1" fill="#050000"/>
<rect x="3" y="5" width="1" height="1" fill="#050000"/>
<rect x="3" y="7" width="1" height="1" fill="#050000"/>
<rect x="2" y="8" width="1" height="1" fill="#050000"/>
<rect x="1" y="9" width="1" height="1" fill="#050000"/>
<rect x="1" y="3" width="1" height="1" fill="#050000"/>
<rect x="1" y="5" width="1" height="1" fill="#050000"/>
<rect x="1" y="7" width="1" height="1" fill="#050000"/>
<rect x="1" y="10" width="1" height="1" fill="#6B120A"/>
<rect x="1" y="12" width="1" height="1" fill="#6B120A"/>
<rect x="1" y="14" width="1" height="1" fill="#6B120A"/>
<rect x="1" y="16" width="1" height="1" fill="#6B120A"/>
<rect x="1" y="18" width="1" height="1" fill="#6B120A"/>
<rect x="3" y="14" width="1" height="1" fill="#6B120A"/>
<rect x="3" y="16" width="1" height="1" fill="#6B120A"/>
<rect x="3" y="18" width="1" height="1" fill="#6B120A"/>
<rect x="2" y="19" width="1" height="1" fill="#6B120A"/>
<rect x="2" y="13" width="1" height="1" fill="#6B120A"/>
<rect x="2" y="15" width="1" height="1" fill="#6B120A"/>
<rect x="2" y="17" width="1" height="1" fill="#6B120A"/>
<rect x="2" y="14" width="1" height="1" fill="#050000"/>
<rect x="2" y="16" width="1" height="1" fill="#050000"/>
<rect x="3" y="15" width="1" height="1" fill="#050000"/>
<rect x="3" y="17" width="1" height="1" fill="#050000"/>
<rect x="2" y="18" width="1" height="1" fill="#050000"/>
<rect x="1" y="19" width="1" height="1" fill="#050000"/>
<rect x="1" y="13" width="1" height="1" fill="#050000"/>
<rect x="1" y="15" width="1" height="1" fill="#050000"/>
<rect x="1" y="17" width="1" height="1" fill="#050000"/>
<rect x="1" y="20" width="1" height="1" fill="#6B120A"/>
<rect x="3" y="22" width="1" height="1" transform="rotate(-90 3 22)" fill="#6B120A"/>
<rect x="5" y="22" width="1" height="1" transform="rotate(-90 5 22)" fill="#6B120A"/>
<rect x="7" y="22" width="1" height="1" transform="rotate(-90 7 22)" fill="#6B120A"/>
<rect x="9" y="22" width="1" height="1" transform="rotate(-90 9 22)" fill="#6B120A"/>
<rect x="5" y="20" width="1" height="1" transform="rotate(-90 5 20)" fill="#6B120A"/>
<rect x="7" y="20" width="1" height="1" transform="rotate(-90 7 20)" fill="#6B120A"/>
<rect x="4" y="21" width="1" height="1" transform="rotate(-90 4 21)" fill="#6B120A"/>
<rect x="6" y="21" width="1" height="1" transform="rotate(-90 6 21)" fill="#6B120A"/>
<rect x="8" y="21" width="1" height="1" transform="rotate(-90 8 21)" fill="#6B120A"/>
<rect x="5" y="21" width="1" height="1" transform="rotate(-90 5 21)" fill="#050000"/>
<rect x="7" y="21" width="1" height="1" transform="rotate(-90 7 21)" fill="#050000"/>
<rect x="6" y="20" width="1" height="1" transform="rotate(-90 6 20)" fill="#050000"/>
<rect x="4" y="22" width="1" height="1" transform="rotate(-90 4 22)" fill="#050000"/>
<rect x="6" y="22" width="1" height="1" transform="rotate(-90 6 22)" fill="#050000"/>
<rect x="8" y="22" width="1" height="1" transform="rotate(-90 8 22)" fill="#050000"/>
<rect x="10" y="1" width="1" height="1" transform="rotate(90 10 1)" fill="#6B120A"/>
<rect x="8" y="1" width="1" height="1" transform="rotate(90 8 1)" fill="#6B120A"/>
<rect x="6" y="1" width="1" height="1" transform="rotate(90 6 1)" fill="#6B120A"/>
<rect x="4" y="1" width="1" height="1" transform="rotate(90 4 1)" fill="#6B120A"/>
<rect x="8" y="3" width="1" height="1" transform="rotate(90 8 3)" fill="#6B120A"/>
<rect x="6" y="3" width="1" height="1" transform="rotate(90 6 3)" fill="#6B120A"/>
<rect x="9" y="2" width="1" height="1" transform="rotate(90 9 2)" fill="#6B120A"/>
<rect x="7" y="2" width="1" height="1" transform="rotate(90 7 2)" fill="#6B120A"/>
<rect x="5" y="2" width="1" height="1" transform="rotate(90 5 2)" fill="#6B120A"/>
<rect x="8" y="2" width="1" height="1" transform="rotate(90 8 2)" fill="#050000"/>
<rect x="6" y="2" width="1" height="1" transform="rotate(90 6 2)" fill="#050000"/>
<rect x="7" y="3" width="1" height="1" transform="rotate(90 7 3)" fill="#050000"/>
<rect x="9" y="1" width="1" height="1" transform="rotate(90 9 1)" fill="#050000"/>
<rect x="7" y="1" width="1" height="1" transform="rotate(90 7 1)" fill="#050000"/>
<rect x="5" y="1" width="1" height="1" transform="rotate(90 5 1)" fill="#050000"/>
<rect x="12" y="21" width="1" height="1" transform="rotate(-180 12 21)" fill="#6B120A"/>
<rect x="12" y="19" width="1" height="1" transform="rotate(-180 12 19)" fill="#6B120A"/>
<rect x="12" y="17" width="1" height="1" transform="rotate(-180 12 17)" fill="#6B120A"/>
<rect x="12" y="15" width="1" height="1" transform="rotate(-180 12 15)" fill="#6B120A"/>
<rect x="10" y="19" width="1" height="1" transform="rotate(-180 10 19)" fill="#6B120A"/>
<rect x="10" y="17" width="1" height="1" transform="rotate(-180 10 17)" fill="#6B120A"/>
<rect x="10" y="15" width="1" height="1" transform="rotate(-180 10 15)" fill="#6B120A"/>
<rect x="11" y="14" width="1" height="1" transform="rotate(-180 11 14)" fill="#6B120A"/>
<rect x="11" y="20" width="1" height="1" transform="rotate(-180 11 20)" fill="#6B120A"/>
<rect x="11" y="18" width="1" height="1" transform="rotate(-180 11 18)" fill="#6B120A"/>
<rect x="11" y="16" width="1" height="1" transform="rotate(-180 11 16)" fill="#6B120A"/>
<rect x="11" y="19" width="1" height="1" transform="rotate(-180 11 19)" fill="#050000"/>
<rect x="11" y="17" width="1" height="1" transform="rotate(-180 11 17)" fill="#050000"/>
<rect x="10" y="18" width="1" height="1" transform="rotate(-180 10 18)" fill="#050000"/>
<rect x="10" y="16" width="1" height="1" transform="rotate(-180 10 16)" fill="#050000"/>
<rect x="11" y="15" width="1" height="1" transform="rotate(-180 11 15)" fill="#050000"/>
<rect x="12" y="14" width="1" height="1" transform="rotate(-180 12 14)" fill="#050000"/>
<rect x="12" y="20" width="1" height="1" transform="rotate(-180 12 20)" fill="#050000"/>
<rect x="12" y="18" width="1" height="1" transform="rotate(-180 12 18)" fill="#050000"/>
<rect x="12" y="16" width="1" height="1" transform="rotate(-180 12 16)" fill="#050000"/>
<rect x="12" y="13" width="1" height="1" transform="rotate(-180 12 13)" fill="#6B120A"/>
<rect x="12" y="11" width="1" height="1" transform="rotate(-180 12 11)" fill="#6B120A"/>
<rect x="12" y="9" width="1" height="1" transform="rotate(-180 12 9)" fill="#6B120A"/>
<rect x="12" y="7" width="1" height="1" transform="rotate(-180 12 7)" fill="#6B120A"/>
<rect x="12" y="5" width="1" height="1" transform="rotate(-180 12 5)" fill="#6B120A"/>
<rect x="10" y="9" width="1" height="1" transform="rotate(-180 10 9)" fill="#6B120A"/>
<rect x="10" y="7" width="1" height="1" transform="rotate(-180 10 7)" fill="#6B120A"/>
<rect x="10" y="5" width="1" height="1" transform="rotate(-180 10 5)" fill="#6B120A"/>
<rect x="11" y="4" width="1" height="1" transform="rotate(-180 11 4)" fill="#6B120A"/>
<rect x="11" y="10" width="1" height="1" transform="rotate(-180 11 10)" fill="#6B120A"/>
<rect x="11" y="8" width="1" height="1" transform="rotate(-180 11 8)" fill="#6B120A"/>
<rect x="11" y="6" width="1" height="1" transform="rotate(-180 11 6)" fill="#6B120A"/>
<rect x="11" y="9" width="1" height="1" transform="rotate(-180 11 9)" fill="#050000"/>
<rect x="11" y="7" width="1" height="1" transform="rotate(-180 11 7)" fill="#050000"/>
<rect x="10" y="8" width="1" height="1" transform="rotate(-180 10 8)" fill="#050000"/>
<rect x="10" y="6" width="1" height="1" transform="rotate(-180 10 6)" fill="#050000"/>
<rect x="11" y="5" width="1" height="1" transform="rotate(-180 11 5)" fill="#050000"/>
<rect x="12" y="4" width="1" height="1" transform="rotate(-180 12 4)" fill="#050000"/>
<rect x="12" y="10" width="1" height="1" transform="rotate(-180 12 10)" fill="#050000"/>
<rect x="12" y="8" width="1" height="1" transform="rotate(-180 12 8)" fill="#050000"/>
<rect x="12" y="6" width="1" height="1" transform="rotate(-180 12 6)" fill="#050000"/>
<rect x="12" y="3" width="1" height="1" transform="rotate(-180 12 3)" fill="#6B120A"/>
<rect x="11" y="11" width="1" height="9" transform="rotate(90 11 11)" fill="#EB3323"/>
<rect x="10" y="12" width="1" height="7" transform="rotate(90 10 12)" fill="#EB3323"/>
<rect x="10" y="10" width="1" height="7" transform="rotate(90 10 10)" fill="#EB3323"/>
</svg>
