<svg width="17" height="17" viewBox="0 0 17 17" fill="none" xmlns="http://www.w3.org/2000/svg">
<rect x="6" y="1" width="5" height="15" fill="#FFFE54"/>
<rect x="4" y="2" width="2" height="13" fill="#FFFE54"/>
<rect x="11" y="2" width="2" height="13" fill="#FFFE54"/>
<rect x="3" y="3" width="1" height="11" fill="#FFFE54"/>
<rect x="13" y="3" width="1" height="11" fill="#FFFE54"/>
<rect x="2" y="4" width="1" height="9" fill="#FFFE54"/>
<rect x="14" y="4" width="1" height="9" fill="#FFFE54"/>
<rect x="1" y="6" width="1" height="5" fill="#FFFE54"/>
<rect x="15" y="6" width="1" height="5" fill="#FFFE54"/>
<line x1="2" y1="13.5" x2="3" y2="13.5" stroke="black"/>
<line x1="3" y1="14.5" x2="4" y2="14.5" stroke="black"/>
<line x1="13" y1="14.5" x2="14" y2="14.5" stroke="black"/>
<line x1="14" y1="13.5" x2="15" y2="13.5" stroke="black"/>
<line x1="14" y1="3.5" x2="15" y2="3.5" stroke="black"/>
<line x1="13" y1="2.5" x2="14" y2="2.5" stroke="black"/>
<line x1="3" y1="2.5" x2="4" y2="2.5" stroke="black"/>
<line x1="2" y1="3.5" x2="3" y2="3.5" stroke="black"/>
<line x1="6" y1="0.5" x2="11" y2="0.5" stroke="black"/>
<line x1="6" y1="16.5" x2="11" y2="16.5" stroke="black"/>
<line x1="0.5" y1="11" x2="0.5" y2="6" stroke="black"/>
<line x1="0.5" y1="11" x2="0.5" y2="6" stroke="black"/>
<line x1="16.5" y1="11" x2="16.5" y2="6" stroke="black"/>
<line x1="13" y1="1.5" x2="11" y2="1.5" stroke="black"/>
<line x1="6" y1="15.5" x2="4" y2="15.5" stroke="black"/>
<line x1="13" y1="15.5" x2="11" y2="15.5" stroke="black"/>
<line x1="1.5" y1="13" x2="1.5" y2="11" stroke="black"/>
<line x1="1.5" y1="6" x2="1.5" y2="4" stroke="black"/>
<line x1="15.5" y1="6" x2="15.5" y2="4" stroke="black"/>
<line x1="15.5" y1="13" x2="15.5" y2="11" stroke="black"/>
<line x1="6" y1="1.5" x2="4" y2="1.5" stroke="black"/>
<rect x="4" y="3" width="3" height="3" fill="black"/>
<rect x="10" y="3" width="3" height="3" fill="black"/>
<line x1="7" y1="12.5" x2="8" y2="12.5" stroke="black"/>
<line x1="9" y1="12.5" x2="10" y2="12.5" stroke="black"/>
<line x1="7" y1="13.5" x2="10" y2="13.5" stroke="black"/>
<line x1="10" y1="10.5" x2="9" y2="10.5" stroke="black"/>
<line x1="11" y1="11.5" x2="10" y2="11.5" stroke="black"/>
<line x1="7" y1="11.5" x2="6" y2="11.5" stroke="black"/>
<line x1="8" y1="10.5" x2="7" y2="10.5" stroke="black"/>
<line x1="10" y1="9.5" x2="7" y2="9.5" stroke="black"/>
</svg>
